<svg width="44" height="44" viewBox="0 0 44 44" fill="none" xmlns="http://www.w3.org/2000/svg">
<path d="M22 25.0333L28.2834 31.3166C28.6806 31.7138 29.1862 31.9124 29.8 31.9124C30.4139 31.9124 30.9195 31.7138 31.3167 31.3166C31.7139 30.9194 31.9125 30.4138 31.9125 29.7999C31.9125 29.186 31.7139 28.6805 31.3167 28.2833L25.0334 21.9999L31.3167 15.7166C31.7139 15.3194 31.9125 14.8138 31.9125 14.1999C31.9125 13.586 31.7139 13.0805 31.3167 12.6833C30.9195 12.286 30.4139 12.0874 29.8 12.0874C29.1862 12.0874 28.6806 12.286 28.2834 12.6833L22 18.9666L15.7167 12.6833C15.3195 12.286 14.8139 12.0874 14.2 12.0874C13.5862 12.0874 13.0806 12.286 12.6834 12.6833C12.2862 13.0805 12.0875 13.586 12.0875 14.1999C12.0875 14.8138 12.2862 15.3194 12.6834 15.7166L18.9667 21.9999L12.6834 28.2833C12.2862 28.6805 12.0875 29.186 12.0875 29.7999C12.0875 30.4138 12.2862 30.9194 12.6834 31.3166C13.0806 31.7138 13.5862 31.9124 14.2 31.9124C14.8139 31.9124 15.3195 31.7138 15.7167 31.3166L22 25.0333ZM22 43.6666C19.0028 43.6666 16.1862 43.0978 13.55 41.9603C10.9139 40.8228 8.62087 39.2791 6.67087 37.3291C4.72087 35.3791 3.17712 33.086 2.03962 30.4499C0.902124 27.8138 0.333374 24.9971 0.333374 21.9999C0.333374 19.0027 0.902124 16.186 2.03962 13.5499C3.17712 10.9138 4.72087 8.62075 6.67087 6.67075C8.62087 4.72075 10.9139 3.177 13.55 2.0395C16.1862 0.902002 19.0028 0.333252 22 0.333252C24.9973 0.333252 27.8139 0.902002 30.45 2.0395C33.0862 3.177 35.3792 4.72075 37.3292 6.67075C39.2792 8.62075 40.823 10.9138 41.9605 13.5499C43.098 16.186 43.6667 19.0027 43.6667 21.9999C43.6667 24.9971 43.098 27.8138 41.9605 30.4499C40.823 33.086 39.2792 35.3791 37.3292 37.3291C35.3792 39.2791 33.0862 40.8228 30.45 41.9603C27.8139 43.0978 24.9973 43.6666 22 43.6666ZM22 39.3333C26.8389 39.3333 30.9375 37.6541 34.2959 34.2958C37.6542 30.9374 39.3334 26.8388 39.3334 21.9999C39.3334 17.161 37.6542 13.0624 34.2959 9.70409C30.9375 6.34575 26.8389 4.66659 22 4.66659C17.1612 4.66659 13.0625 6.34575 9.70421 9.70409C6.34587 13.0624 4.66671 17.161 4.66671 21.9999C4.66671 26.8388 6.34587 30.9374 9.70421 34.2958C13.0625 37.6541 17.1612 39.3333 22 39.3333Z" fill="white"/>
</svg>
