<svg width="40" height="42" viewBox="0 0 40 42" fill="none" xmlns="http://www.w3.org/2000/svg">
<path d="M10.4962 33.25H15.3636V24.5C15.3636 24.0042 15.5191 23.5885 15.8301 23.2531C16.1411 22.9177 16.5264 22.75 16.9861 22.75H23.4761C23.9358 22.75 24.3211 22.9177 24.6321 23.2531C24.9431 23.5885 25.0985 24.0042 25.0985 24.5L25.0985 33.25H29.966L29.966 17.5L20.2311 9.625L10.4962 17.5L10.4962 33.25ZM7.25122 33.25L7.25122 17.5C7.25122 16.9458 7.36615 16.4208 7.596 15.925C7.82585 15.4292 8.14359 15.0208 8.54921 14.7L18.2841 6.825C18.852 6.35833 19.501 6.125 20.2311 6.125C20.9612 6.125 21.6102 6.35833 22.1781 6.825L31.913 14.7C32.3186 15.0208 32.6363 15.4292 32.8662 15.925C33.096 16.4208 33.211 16.9458 33.211 17.5V33.25C33.211 34.2125 32.8932 35.0365 32.2578 35.7219C31.6223 36.4073 30.8584 36.75 29.966 36.75H23.4761C23.0164 36.75 22.631 36.5823 22.32 36.2469C22.0091 35.9115 21.8536 35.4958 21.8536 35V26.25H18.6086V35C18.6086 35.4958 18.4531 35.9115 18.1421 36.2469C17.8312 36.5823 17.4458 36.75 16.9861 36.75H10.4962C9.60382 36.75 8.8399 36.4073 8.20443 35.7219C7.56896 35.0365 7.25122 34.2125 7.25122 33.25Z" fill="#2271D1"/>
</svg>
