<svg width="31" height="30" viewBox="0 0 31 30" fill="none" xmlns="http://www.w3.org/2000/svg">
<path d="M13.7612 16.5V21C13.7612 21.425 13.905 21.7812 14.1925 22.0688C14.48 22.3563 14.8362 22.5 15.2612 22.5C15.6862 22.5 16.0425 22.3563 16.33 22.0688C16.6175 21.7812 16.7612 21.425 16.7612 21V16.5H21.2612C21.6862 16.5 22.0425 16.3563 22.33 16.0688C22.6175 15.7813 22.7612 15.425 22.7612 15C22.7612 14.575 22.6175 14.2188 22.33 13.9313C22.0425 13.6438 21.6862 13.5 21.2612 13.5H16.7612V9C16.7612 8.575 16.6175 8.21875 16.33 7.93125C16.0425 7.64375 15.6862 7.5 15.2612 7.5C14.8362 7.5 14.48 7.64375 14.1925 7.93125C13.905 8.21875 13.7612 8.575 13.7612 9L13.7612 13.5L9.26123 13.5C8.83623 13.5 8.47998 13.6438 8.19248 13.9313C7.90498 14.2188 7.76123 14.575 7.76123 15C7.76123 15.425 7.90498 15.7813 8.19248 16.0688C8.47998 16.3563 8.83623 16.5 9.26123 16.5H13.7612ZM15.2612 30C13.1862 30 11.2362 29.6063 9.41123 28.8188C7.58623 28.0313 5.99873 26.9625 4.64873 25.6125C3.29873 24.2625 2.22998 22.675 1.44248 20.85C0.65498 19.025 0.26123 17.075 0.26123 15C0.26123 12.925 0.65498 10.975 1.44248 9.15C2.22998 7.325 3.29873 5.7375 4.64873 4.3875C5.99873 3.0375 7.58623 1.96875 9.41123 1.18125C11.2362 0.39375 13.1862 0 15.2612 0C17.3362 0 19.2862 0.39375 21.1112 1.18125C22.9362 1.96875 24.5237 3.0375 25.8737 4.3875C27.2237 5.7375 28.2925 7.325 29.08 9.15C29.8675 10.975 30.2612 12.925 30.2612 15C30.2612 17.075 29.8675 19.025 29.08 20.85C28.2925 22.675 27.2237 24.2625 25.8737 25.6125C24.5237 26.9625 22.9362 28.0313 21.1112 28.8188C19.2862 29.6063 17.3362 30 15.2612 30ZM15.2612 27C18.6112 27 21.4487 25.8375 23.7737 23.5125C26.0987 21.1875 27.2612 18.35 27.2612 15C27.2612 11.65 26.0987 8.8125 23.7737 6.4875C21.4487 4.1625 18.6112 3 15.2612 3C11.9112 3 9.07373 4.1625 6.74873 6.4875C4.42373 8.8125 3.26123 11.65 3.26123 15C3.26123 18.35 4.42373 21.1875 6.74873 23.5125C9.07373 25.8375 11.9112 27 15.2612 27Z" fill="#2271D1"/>
</svg>
